#N canvas 960 56 960 1001 10;
#X floatatom 96 261 5 0 0 0 - - -, f 5;
#X floatatom 137 261 5 0 0 0 - - -, f 5;
#X floatatom 180 261 5 0 0 0 - - -, f 5;
#X obj 162 499 +;
#X obj 83 118 == \$1;
#X obj 125 118 == \$2;
#X floatatom 162 692 5 0 0 0 - - -, f 5;
#X obj 162 597 spigot;
#X obj 162 539 t f f;
#X obj 83 -17 inlet;
#X obj 83 55 unpack f f f;
#X obj 162 849 outlet;
#X obj 138 -17 inlet;
#X obj 194 -17 inlet;
#X obj 252 -17 inlet;
#X obj 329 145 f \$1;
#X floatatom 329 167 5 0 0 0 - - -, f 5;
#X floatatom 388 167 5 0 0 0 - - -, f 5;
#X floatatom 436 167 5 0 0 0 - - -, f 5;
#X obj 388 145 f \$2;
#X obj 436 145 f \$3;
#X obj 401 22 loadbang;
#X obj 206 74 t b;
#X obj 189 571 == 3;
#X floatatom 83 80 5 0 0 0 - - -, f 5;
#X floatatom 117 80 5 0 0 0 - - -, f 5;
#X obj 165 118 > \$3;
#X obj 295 659 + 1, f 4;
#X floatatom 254 731 5 0 0 0 - - -, f 5;
#X obj 162 807 spigot;
#X obj 195 771 == 1;
#X obj 341 521 t b;
#X obj 458 498 loadbang;
#X obj 162 632 t f b;
#X msg 410 611 0;
#X obj 254 693 + 1;
#X obj 254 659 f 0;
#X msg 398 452 2000;
#X obj 341 488 delay;
#X obj 341 417 t b b;
#X obj 464 526 r reset;
#X obj 414 834 + 1, f 4;
#X floatatom 373 906 5 0 0 0 - - -, f 5;
#X msg 493 794 0;
#X obj 373 868 + 1;
#X obj 373 834 f 0;
#X obj 373 794 t b;
#X obj 42 887 print \$1 \$2 \$3;
#X floatatom 151 80 5 0 0 0 - - -, f 5;
#X obj 96 230 f;
#X obj 137 230 f;
#X floatatom 72 561 5 0 0 0 - - -, f 5;
#X obj 180 229 f;
#X obj 108 384 +;
#X obj 96 294 t b f;
#X obj 138 324 f;
#X obj 108 409 t b f;
#X obj 165 438 f;
#X connect 0 0 54 0;
#X connect 1 0 55 1;
#X connect 2 0 57 1;
#X connect 3 0 8 0;
#X connect 3 0 51 0;
#X connect 4 0 49 0;
#X connect 5 0 50 0;
#X connect 6 0 29 0;
#X connect 7 0 33 0;
#X connect 8 0 7 0;
#X connect 8 1 23 0;
#X connect 9 0 10 0;
#X connect 9 0 22 0;
#X connect 10 0 24 0;
#X connect 10 1 25 0;
#X connect 10 2 48 0;
#X connect 12 0 22 0;
#X connect 12 0 15 1;
#X connect 13 0 19 1;
#X connect 13 0 22 0;
#X connect 14 0 20 1;
#X connect 14 0 22 0;
#X connect 15 0 16 0;
#X connect 19 0 17 0;
#X connect 20 0 18 0;
#X connect 21 0 22 0;
#X connect 22 0 15 0;
#X connect 22 0 19 0;
#X connect 22 0 20 0;
#X connect 23 0 7 1;
#X connect 24 0 4 0;
#X connect 25 0 5 0;
#X connect 26 0 52 0;
#X connect 27 0 36 1;
#X connect 28 0 30 0;
#X connect 29 0 11 0;
#X connect 29 0 39 0;
#X connect 29 0 47 0;
#X connect 30 0 29 1;
#X connect 31 0 34 0;
#X connect 32 0 34 0;
#X connect 33 0 6 0;
#X connect 33 1 36 0;
#X connect 34 0 28 0;
#X connect 34 0 36 1;
#X connect 35 0 28 0;
#X connect 36 0 27 0;
#X connect 36 0 35 0;
#X connect 37 0 38 1;
#X connect 38 0 31 0;
#X connect 39 0 38 0;
#X connect 39 1 37 0;
#X connect 40 0 34 0;
#X connect 41 0 45 1;
#X connect 43 0 42 0;
#X connect 43 0 45 1;
#X connect 44 0 42 0;
#X connect 45 0 41 0;
#X connect 45 0 44 0;
#X connect 46 0 45 0;
#X connect 48 0 26 0;
#X connect 49 0 0 0;
#X connect 50 0 1 0;
#X connect 52 0 2 0;
#X connect 53 0 56 0;
#X connect 54 0 55 0;
#X connect 54 1 53 1;
#X connect 55 0 53 0;
#X connect 56 0 57 0;
#X connect 56 1 3 1;
#X connect 57 0 3 0;
