#N canvas 960 56 960 1024 10;
#X obj 64 172 soundfiler;
#X floatatom 99 206 18 0 0 0 - - -, f 18;
#X obj 65 269 expr 44100 / $f1;
#X obj 20 219 print;
#X msg 64 139 read -maxsize 1e+10 -resize \$1 chL chR;
#X obj 520 310 table chL;
#X obj 520 334 table chR;
#X obj 308 418 phasor~;
#X obj 199 710 *~;
#X obj 434 556 snapshot~;
#X obj 434 452 tgl 15 0 empty empty empty 17 7 0 10 -262144 -1 -1 1
1;
#X obj 199 767 tabread~ chL;
#X obj 288 767 tabread~ chR;
#X obj 404 766 vsl 40 100 0 1 0 0 empty empty empty 0 -9 0 10 -262144
-1 -1 9900 1;
#X floatatom 404 883 5 0 0 0 - - -, f 5;
#X obj 199 833 *~;
#X obj 288 832 *~;
#X floatatom 434 584 13 0 0 0 - - -, f 13;
#X obj 434 613 s position;
#X obj 520 365 r position;
#X obj 347 393 r seek;
#X floatatom 634 623 19 0 0 0 - - -, f 19;
#X obj 634 725 / 60;
#X obj 634 747 int;
#X floatatom 634 775 5 0 0 0 - - -, f 5;
#X floatatom 674 775 5 0 0 0 - - -, f 5;
#X obj 674 725 % 60;
#X obj 739 678 int;
#X obj 711 678 f;
#X obj 714 724 -;
#X floatatom 714 775 5 0 0 0 - - -, f 5;
#X obj 742 707 t b;
#X obj 714 746 * 1000;
#X obj 199 922 dac~;
#X obj 308 208 vsl 17 82 -8 8 0 0 empty empty empty 0 -9 0 10 -262144
-1 -1 0 1;
#X floatatom 308 300 5 0 0 0 - - -, f 5;
#X obj 308 334 *;
#X floatatom 308 356 21 0 0 0 - - -, f 21;
#X msg 308 180 1;
#X msg 354 180 0;
#X obj 434 414 loadbang;
#X obj 634 826 pack f f f;
#X obj 634 848 s time;
#X obj 66 -134 block~ 64;
#X obj 1132 -17 objslider 1;
#X obj 1132 268 ctlout 0 1;
#X obj 1282 -15 objslider 2;
#X obj 1428 -16 objslider 3;
#X obj 1800 142 until;
#X obj 1800 168 counter;
#X obj 1800 105 t f b b;
#X obj 1800 208 + 1;
#X floatatom 1800 230 5 0 0 0 - - -, f 5;
#X msg 1800 262 \$1-objslider;
#X obj 1800 288 symbol;
#X obj 1800 318 t b s;
#X obj 1800 385 s \$1;
#X msg 1800 350 0, f 6;
#X msg 1800 75 100;
#X obj 1800 41 r dimall;
#X obj 602 17 s dimall;
#X obj 520 480 s seek;
#X msg 211 107 open ../wagner.wav;
#X obj 1282 270 ctlout 1 1;
#X obj 1428 269 ctlout 2 1;
#X obj 1546 429 r time;
#X msg 404 732 1;
#X obj 404 704 loadbang;
#X msg 79 450 \; pd dsp 1;
#X msg 79 486 \; pd dsp 0;
#X obj 79 427 loadbang;
#X obj 240 -113 loadbang;
#X msg 240 -24 open ../../intheflesh.wav;
#X obj 308 457 s~ phasor;
#X obj 199 638 r~ phasor;
#X obj 451 516 r~ phasor;
#X obj 634 553 r position;
#X obj 404 904 s gain;
#X obj 214 800 r gain;
#X obj 99 227 s sample_count;
#X obj 214 674 r sample_count;
#X obj 634 590 expr $f1 * $f2 / 44100;
#X obj 719 553 r sample_count;
#X obj 372 86 r start;
#X obj 372 108 t b;
#X obj 590 365 r skipping;
#X obj 814 45 bng 61 250 50 0 empty empty empty 17 7 0 10 -262144 -1
-1;
#X obj 883 45 bng 61 250 50 0 empty empty empty 17 7 0 10 -262144 -1
-1;
#X obj 604 -189 t b b b;
#X obj 421 86 r stop;
#X obj 421 107 t b;
#X obj 643 -127 s stop;
#N canvas 0 56 1920 1001 times 1;
#X obj 134 442 s 1-objslider;
#X obj 134 386 s 2-objslider;
#X obj 143 349 s 3-objslider;
#X obj 330 130 r time;
#X obj 125 494 s 4-objslider;
#X obj 330 168 objtimer 0 0 0;
#X msg 123 206 0 0;
#X obj 83 281 r ard;
#X obj 50 381 objtty;
#X msg 50 253 1 0 0 0;
#X obj 630 132 r time;
#X obj 663 305 r ard;
#X obj 630 405 objtty;
#X obj 494 131 r time;
#X obj 527 304 r ard;
#X obj 494 404 objtty;
#X obj 630 170 objtimer 1 57 500;
#X obj 781 128 r time;
#X obj 814 301 r ard;
#X obj 781 401 objtty;
#X obj 1061 127 r time;
#X obj 1094 300 r ard;
#X obj 1061 400 objtty;
#X obj 1061 165 objtimer 2 24 500;
#X obj 1319 128 r time;
#X obj 1352 301 r ard;
#X obj 1319 401 objtty;
#X obj 898 127 r time;
#X obj 931 300 r ard;
#X obj 898 400 objtty;
#X obj 1178 127 r time;
#X obj 1211 300 r ard;
#X obj 1178 400 objtty;
#X obj 1438 129 r time;
#X obj 1471 302 r ard;
#X obj 1438 402 objtty;
#X obj 501 482 r time;
#X obj 534 655 r ard;
#X obj 501 755 objtty;
#X obj 620 483 r time;
#X obj 653 656 r ard;
#X obj 620 756 objtty;
#X obj 620 521 objtimer 2 50 0;
#X obj 754 485 r time;
#X obj 787 658 r ard;
#X obj 754 758 objtty;
#X obj 873 486 r time;
#X obj 906 659 r ard;
#X obj 873 759 objtty;
#X obj 873 524 objtimer 3 0 0;
#X obj 1010 484 r time;
#X obj 1043 657 r ard;
#X obj 1010 757 objtty;
#X obj 1129 485 r time;
#X obj 1162 658 r ard;
#X obj 1129 758 objtty;
#X obj 1129 523 objtimer 3 38 0;
#X obj 363 260 r ard;
#X obj 330 360 objtty;
#X obj 319 426 r time;
#X obj 352 556 r ard;
#X obj 319 656 objtty;
#X obj 319 464 objtimer 0 1 0;
#X msg 501 627 1 1 1 1;
#X msg 754 630 1 1 1 1;
#X msg 873 631 0 1 1 1;
#X msg 620 628 0 1 1 1;
#X msg 1129 630 0 1 1 1;
#X msg 1010 629 1 1 1 1;
#X msg 1061 272 1 1 1 1;
#X msg 1319 273 1 1 1 1;
#X msg 781 273 1 1 1 1;
#X msg 898 272 0 1 1 1;
#X msg 1178 272 0 1 1 1;
#X msg 1438 274 0 1 1 1;
#X msg 630 277 0 1 1 1;
#X msg 329 235 0 1 1 1;
#X msg 494 276 0 1 1 0;
#X msg 319 528 0 1 1 1;
#X obj 1178 165 objtimer 2 26 0;
#X obj 1319 166 objtimer 2 44 0;
#X obj 1438 167 objtimer 2 45 0;
#X obj 501 520 objtimer 2 49 0;
#X obj 754 523 objtimer 2 59 0;
#X obj 1010 522 objtimer 3 37 0;
#X obj 781 166 objtimer 2 15 0;
#X obj 898 165 objtimer 2 16 500;
#X obj 494 169 objtimer 1 23 500;
#X connect 3 0 5 0;
#X connect 5 0 76 0;
#X connect 6 0 2 0;
#X connect 6 0 4 0;
#X connect 6 0 1 0;
#X connect 6 0 0 0;
#X connect 7 0 8 1;
#X connect 9 0 8 0;
#X connect 10 0 16 0;
#X connect 11 0 12 1;
#X connect 13 0 87 0;
#X connect 14 0 15 1;
#X connect 16 0 75 0;
#X connect 17 0 85 0;
#X connect 18 0 19 1;
#X connect 20 0 23 0;
#X connect 21 0 22 1;
#X connect 23 0 69 0;
#X connect 24 0 80 0;
#X connect 25 0 26 1;
#X connect 27 0 86 0;
#X connect 28 0 29 1;
#X connect 30 0 79 0;
#X connect 31 0 32 1;
#X connect 33 0 81 0;
#X connect 34 0 35 1;
#X connect 36 0 82 0;
#X connect 37 0 38 1;
#X connect 39 0 42 0;
#X connect 40 0 41 1;
#X connect 42 0 66 0;
#X connect 43 0 83 0;
#X connect 44 0 45 1;
#X connect 46 0 49 0;
#X connect 47 0 48 1;
#X connect 49 0 65 0;
#X connect 50 0 84 0;
#X connect 51 0 52 1;
#X connect 53 0 56 0;
#X connect 54 0 55 1;
#X connect 56 0 67 0;
#X connect 57 0 58 1;
#X connect 59 0 62 0;
#X connect 60 0 61 1;
#X connect 62 0 78 0;
#X connect 63 0 38 0;
#X connect 64 0 45 0;
#X connect 65 0 48 0;
#X connect 66 0 41 0;
#X connect 67 0 55 0;
#X connect 68 0 52 0;
#X connect 69 0 22 0;
#X connect 70 0 26 0;
#X connect 71 0 19 0;
#X connect 72 0 29 0;
#X connect 73 0 32 0;
#X connect 74 0 35 0;
#X connect 75 0 12 0;
#X connect 76 0 58 0;
#X connect 77 0 15 0;
#X connect 78 0 61 0;
#X connect 79 0 73 0;
#X connect 80 0 70 0;
#X connect 81 0 74 0;
#X connect 82 0 63 0;
#X connect 83 0 64 0;
#X connect 84 0 68 0;
#X connect 85 0 71 0;
#X connect 86 0 72 0;
#X connect 87 0 77 0;
#X restore 1203 418 pd times;
#X msg 1546 515 127 500;
#X obj 1546 470 objtimer 0 20 150;
#X msg 1682 524 1 0 1 0;
#X msg 1739 455 1 1 1 1;
#X obj 1568 -16 objslider 4;
#X obj 1568 269 ctlout 3 1;
#X obj 952 45 bng 61 250 50 0 empty empty empty 17 7 0 10 -262144 -1
-1;
#X obj 528 -141 s start;
#X obj 566 -167 s stop;
#X obj 1811 483 r ard;
#X obj 1778 583 objtty;
#X obj 497 213 spigot;
#X obj 497 191 t b f;
#X obj 497 134 r stopwatch;
#X obj 497 161 != 0;
#X obj 1029 185 r position;
#X obj 933 256 <;
#X obj 933 315 spigot;
#X obj 933 293 t b f;
#X obj 566 480 s c_position;
#X floatatom 1029 207 5 0 0 0 - - -, f 5;
#X floatatom 948 207 5 0 0 0 - - -, f 5;
#X obj 948 185 r c_position;
#X obj 520 408 hsl 600 60 0 1 0 0 empty empty empty -2 -8 0 10 -258699
-262144 -1 0 0;
#X obj 623 -150 0;
#X obj 623 -103 s skipping;
#X obj 664 -61 r reset;
#X obj 933 337 s reset;
#X obj 664 63 s stop;
#X obj 481 40 tcponeoffsend 9989;
#X obj 481 -3 r tcpsend;
#X obj 354 257 s tcpsend;
#X obj 632 195 r skipping;
#X msg 632 217 skipping \$1;
#X obj 632 272 s tcpsend;
#X msg 354 235 pause \$1;
#X obj 520 388 hsl 600 60 0 1 0 0 empty empty empty -2 -8 0 10 -262144
-1 -1 0 1;
#X obj 952 111 s reset;
#X obj 1462 469 r ard;
#X obj 1429 569 objtty;
#X msg 1429 441 0 0 0 0;
#X obj 528 -244 tcpreceive;
#X obj 434 478 metro 100;
#X obj 664 -24 t b b b;
#X obj 897 -31 s start;
#X obj 742 175 s tcpsend;
#X msg 742 115 1;
#X msg 742 146 restart \$1;
#X msg 735 7 0;
#X obj 735 32 s skipping;
#X obj 742 90 delay 1500;
#X msg 51 -43 open ../assets/comyslis.wav;
#X connect 0 0 1 0;
#X connect 0 0 2 0;
#X connect 0 0 3 0;
#X connect 1 0 79 0;
#X connect 2 0 36 1;
#X connect 4 0 0 0;
#X connect 7 0 73 0;
#X connect 8 0 11 0;
#X connect 8 0 12 0;
#X connect 9 0 17 0;
#X connect 10 0 135 0;
#X connect 11 0 15 0;
#X connect 12 0 16 0;
#X connect 13 0 14 0;
#X connect 14 0 77 0;
#X connect 15 0 33 0;
#X connect 16 0 33 1;
#X connect 17 0 18 0;
#X connect 19 0 129 0;
#X connect 20 0 7 1;
#X connect 21 0 22 0;
#X connect 21 0 26 0;
#X connect 21 0 28 1;
#X connect 21 0 27 0;
#X connect 22 0 23 0;
#X connect 23 0 24 0;
#X connect 24 0 41 0;
#X connect 25 0 41 1;
#X connect 26 0 25 0;
#X connect 27 0 29 1;
#X connect 27 0 31 0;
#X connect 28 0 29 0;
#X connect 29 0 32 0;
#X connect 30 0 41 2;
#X connect 31 0 28 0;
#X connect 32 0 30 0;
#X connect 34 0 35 0;
#X connect 35 0 36 0;
#X connect 36 0 37 0;
#X connect 37 0 7 0;
#X connect 38 0 34 0;
#X connect 38 0 128 0;
#X connect 39 0 34 0;
#X connect 39 0 128 0;
#X connect 40 0 10 0;
#X connect 41 0 42 0;
#X connect 44 0 45 0;
#X connect 44 1 45 2;
#X connect 46 0 63 0;
#X connect 46 1 63 2;
#X connect 47 0 64 0;
#X connect 47 1 64 2;
#X connect 48 0 49 0;
#X connect 49 0 51 0;
#X connect 50 0 48 0;
#X connect 50 1 49 2;
#X connect 51 0 52 0;
#X connect 52 0 53 0;
#X connect 53 0 54 0;
#X connect 54 0 55 0;
#X connect 55 0 57 0;
#X connect 55 1 56 1;
#X connect 57 0 56 0;
#X connect 58 0 50 0;
#X connect 59 0 58 0;
#X connect 62 0 4 0;
#X connect 65 0 94 0;
#X connect 66 0 13 0;
#X connect 67 0 66 0;
#X connect 70 0 68 0;
#X connect 71 0 144 0;
#X connect 72 0 4 0;
#X connect 72 0 122 0;
#X connect 75 0 9 0;
#X connect 76 0 81 0;
#X connect 78 0 15 1;
#X connect 78 0 16 1;
#X connect 81 0 21 0;
#X connect 82 0 81 1;
#X connect 83 0 84 0;
#X connect 84 0 38 0;
#X connect 85 0 116 0;
#X connect 88 1 117 0;
#X connect 88 2 91 0;
#X connect 89 0 90 0;
#X connect 90 0 39 0;
#X connect 94 0 93 0;
#X connect 95 0 103 0;
#X connect 96 0 103 0;
#X connect 97 0 98 0;
#X connect 97 1 98 2;
#X connect 99 0 130 0;
#X connect 102 0 103 1;
#X connect 105 0 104 0;
#X connect 105 1 104 1;
#X connect 106 0 107 0;
#X connect 107 0 105 0;
#X connect 108 0 113 0;
#X connect 109 0 111 0;
#X connect 110 0 120 0;
#X connect 111 0 110 0;
#X connect 111 1 110 1;
#X connect 113 0 109 0;
#X connect 114 0 109 1;
#X connect 115 0 114 0;
#X connect 116 0 61 0;
#X connect 116 0 112 0;
#X connect 117 0 118 0;
#X connect 119 0 136 0;
#X connect 123 0 122 0;
#X connect 125 0 126 0;
#X connect 126 0 127 0;
#X connect 128 0 124 0;
#X connect 129 0 112 0;
#X connect 131 0 132 1;
#X connect 133 0 132 0;
#X connect 134 0 100 0;
#X connect 134 2 101 0;
#X connect 134 3 88 0;
#X connect 135 0 9 0;
#X connect 136 0 121 0;
#X connect 136 1 60 0;
#X connect 136 2 141 0;
#X connect 136 2 143 0;
#X connect 139 0 140 0;
#X connect 140 0 138 0;
#X connect 141 0 142 0;
#X connect 143 0 139 0;
#X connect 144 0 4 0;
#X connect 144 0 122 0;
