#N canvas 960 56 960 1001 10;
#X msg 293 206 devicename \$1;
#X obj 293 182 symbol;
#X obj 11 64 inlet;
#X obj 230 71 inlet;
#X msg 93 125 10;
#X obj 11 86 t list b;
#X obj 805 63 vsl 20 100 0 255 0 0 empty empty empty 0 -9 0 10 -262144
-1 -1 0 1;
#X obj 805 176 int;
#X floatatom 805 201 5 0 0 0 - - -, f 5;
#X obj 848 63 vsl 20 100 0 255 0 0 empty empty empty 0 -9 0 10 -262144
-1 -1 0 1;
#X obj 848 176 int;
#X floatatom 848 201 5 0 0 0 - - -, f 5;
#X obj 888 63 vsl 20 100 0 255 0 0 empty empty empty 0 -9 0 10 -262144
-1 -1 0 1;
#X obj 888 176 int;
#X floatatom 888 201 5 0 0 0 - - -, f 5;
#X obj 848 234 t b f;
#X obj 888 235 t b f;
#X msg 56 125 13;
#X msg 230 183 close;
#X obj 230 347 comport;
#X msg 309 259 baud 115200;
#X obj 11 174 pack list list list int;
#X obj 230 108 route close;
#X obj 269 477 route open;
#X obj 269 502 outlet;
#X obj 230 372 outlet;
#X msg 515 304 devicename /dev/ttyUSB0;
#X obj 509 501 print reply;
#X msg 556 149 print 123;
#X obj 779 670 shell;
#X obj 805 234 t b f;
#X msg 779 446 RGB;
#X msg 779 636 /home/debian/Documents/DEV/LED.I/pd/pipe.sh \$1 \$2
\$3 \$4 \$5;
#X obj 992 391 symbol;
#X obj 779 524 pack symbol float float float symbol;
#X obj 718 252 t b f;
#X msg 992 366 ./pipe.pipe;
#X obj 779 494 symbol;
#X obj 779 744 unpack symbol float float float symbol;
#X obj 711 348 tgl 26 0 empty empty empty 17 7 0 10 -262144 -1 -1 0
1;
#X msg 369 672 packing;
#X obj 449 788 pack symbol symbol float float float symbol;
#X obj 449 660 unpack s f f f s;
#X obj 437 832 route packing;
#X floatatom 835 782 5 0 0 0 - - -, f 5;
#X floatatom 891 783 5 0 0 0 - - -, f 5;
#X floatatom 947 783 5 0 0 0 - - -, f 5;
#X obj 711 387 metro 40;
#X symbolatom 779 809 10 0 0 0 - - -, f 10;
#X obj 667 568 list trim;
#X obj 667 593 print;
#X obj 220 683 r path;
#X obj 220 708 print path;
#X connect 0 0 19 0;
#X connect 0 0 20 0;
#X connect 1 0 0 0;
#X connect 2 0 5 0;
#X connect 3 0 22 0;
#X connect 4 0 21 3;
#X connect 5 0 21 0;
#X connect 5 1 4 0;
#X connect 5 1 17 0;
#X connect 6 0 7 0;
#X connect 7 0 8 0;
#X connect 8 0 30 0;
#X connect 9 0 10 0;
#X connect 10 0 11 0;
#X connect 11 0 15 0;
#X connect 12 0 13 0;
#X connect 13 0 14 0;
#X connect 14 0 16 0;
#X connect 15 1 36 0;
#X connect 15 1 34 2;
#X connect 16 1 36 0;
#X connect 16 1 34 3;
#X connect 18 0 19 0;
#X connect 19 0 25 0;
#X connect 19 0 27 0;
#X connect 19 1 23 0;
#X connect 20 0 19 0;
#X connect 21 0 19 0;
#X connect 22 0 18 0;
#X connect 22 1 1 0;
#X connect 23 0 24 0;
#X connect 26 0 19 0;
#X connect 28 0 19 0;
#X connect 29 0 38 0;
#X connect 30 1 36 0;
#X connect 30 1 34 1;
#X connect 31 0 37 0;
#X connect 32 0 29 0;
#X connect 33 0 34 4;
#X connect 34 0 32 0;
#X connect 36 0 33 0;
#X connect 37 0 34 0;
#X connect 38 0 48 0;
#X connect 38 1 44 0;
#X connect 38 2 45 0;
#X connect 38 3 46 0;
#X connect 39 0 47 0;
#X connect 40 0 41 0;
#X connect 42 0 41 1;
#X connect 42 1 41 2;
#X connect 42 2 41 3;
#X connect 42 3 41 4;
#X connect 42 4 41 5;
#X connect 47 0 31 0;
#X connect 49 0 50 0;
#X connect 51 0 52 0;
