#N canvas 960 56 960 1001 10;
#X msg 293 206 devicename \$1;
#X obj 293 182 symbol;
#X obj 805 -142 inlet;
#X obj 1143 -145 inlet;
#X msg 93 125 10;
#X obj 11 86 t list b;
#X obj 805 63 vsl 20 100 0 255 0 0 empty empty empty 0 -9 0 10 -262144
-1 -1 0 1;
#X obj 805 176 int;
#X floatatom 805 201 5 0 0 0 - - -, f 5;
#X obj 848 63 vsl 20 100 0 255 0 0 empty empty empty 0 -9 0 10 -262144
-1 -1 9900 1;
#X obj 848 176 int;
#X floatatom 848 201 5 0 0 0 - - -, f 5;
#X obj 888 63 vsl 20 100 0 255 0 0 empty empty empty 0 -9 0 10 -262144
-1 -1 9124 1;
#X obj 888 176 int;
#X floatatom 888 201 5 0 0 0 - - -, f 5;
#X obj 848 234 t b f;
#X obj 888 235 t b f;
#X msg 56 125 13;
#X msg 230 183 close;
#X msg 309 259 baud 115200;
#X obj 11 174 pack list list list int;
#X obj 230 108 route close;
#X obj 269 477 route open;
#X obj 779 1198 outlet;
#X obj 230 372 outlet;
#X msg 441 261 devicename /dev/ttyUSB0;
#X obj 509 501 print reply;
#X msg 556 149 print 123;
#X obj 779 930 shell;
#X obj 805 234 t b f;
#X msg 779 446 RGB;
#X obj 983 391 symbol;
#X msg 983 306 ./pipe.pipe;
#X obj 779 494 symbol;
#X obj 779 1034 unpack symbol float float float symbol;
#X obj 711 368 tgl 26 0 empty empty empty 17 7 0 10 -262144 -1 -1 1
1;
#X msg 1523 -249 packing;
#X obj 1603 -133 pack symbol symbol float float float symbol;
#X obj 1603 -261 unpack s f f f s;
#X obj 1591 -89 route packing;
#X floatatom 835 1072 5 0 0 0 - - -, f 5;
#X floatatom 891 1073 5 0 0 0 - - -, f 5;
#X floatatom 947 1073 5 0 0 0 - - -, f 5;
#X symbolatom 779 1099 10 0 0 0 - - -, f 10;
#X obj 1659 -10 list trim;
#X obj 1659 15 print;
#X msg 951 2 0;
#X obj 711 272 r loadbang_d;
#X obj 703 725 print;
#X obj 1034 532 symbol;
#X obj 1034 500 r path;
#X obj 779 594 pack symbol float float float symbol symbol;
#X msg 779 656 \$6/pipe.sh \$1 \$2 \$3 \$4 \$5;
#X msg -7 1632 leftbottom;
#X msg 4 -299 lefttop;
#X obj 779 809 spigot;
#X obj 812 757 tgl 28 0 empty empty empty 17 7 0 10 -262144 -1 -1 0
1;
#X obj 872 838 t b;
#X obj 872 892 s shell_stop;
#X obj 850 724 r shell_stop;
#X obj 875 949 t b;
#X obj 875 1004 s shell_stop;
#X msg 875 974 1;
#X msg 872 863 0;
#X msg 812 714 1;
#X obj 812 689 loadbang;
#X obj 711 407 metro 30;
#X obj 1143 292 symbol;
#X obj 230 337 t b;
#X obj 1143 -107 route close;
#X obj 1096 -55 s \$0-metro_stop;
#X obj 594 316 r \$0-metro_stop;
#X msg 1096 -82 0;
#X obj 1143 477 s \$0-metro_stop;
#X msg 1143 450 1;
#X msg 711 322 1;
#X obj 805 -86 unpack f f f;
#X obj 951 -37 loadbang;
#X obj 711 297 delay 1000;
#X obj 1143 389 spigot;
#X obj 1196 347 tgl 28 0 empty empty empty 17 7 0 10 -262144 -1 -1
0 1;
#X obj 1234 314 r shell_stop;
#X msg 1196 314 1;
#X obj 1196 261 r loadbang_d;
#X obj 1196 286 delay 1000;
#X msg 1159 676 \$1/ttySetup.sh \$2;
#X obj 1159 646 pack symbol symbol;
#X obj 1247 553 t b;
#X obj 1159 579 symbol;
#X obj 1159 533 r path;
#X obj 1274 510 r \$0-device;
#X obj 1159 745 shell;
#X obj 1159 770 print ttySetup;
#X obj 1047 743 print shell;
#X obj 1054 427 s \$0-device;
#X obj 1311 553 print d;
#X connect 0 0 19 0;
#X connect 0 0 68 0;
#X connect 1 0 0 0;
#X connect 2 0 76 0;
#X connect 3 0 69 0;
#X connect 4 0 20 3;
#X connect 5 0 20 0;
#X connect 5 1 4 0;
#X connect 5 1 17 0;
#X connect 6 0 7 0;
#X connect 7 0 8 0;
#X connect 8 0 29 0;
#X connect 9 0 10 0;
#X connect 10 0 11 0;
#X connect 11 0 15 0;
#X connect 12 0 13 0;
#X connect 13 0 14 0;
#X connect 14 0 16 0;
#X connect 15 0 31 0;
#X connect 15 1 51 2;
#X connect 16 0 31 0;
#X connect 16 1 51 3;
#X connect 18 0 68 0;
#X connect 19 0 68 0;
#X connect 20 0 68 0;
#X connect 21 0 18 0;
#X connect 21 1 1 0;
#X connect 25 0 68 0;
#X connect 27 0 68 0;
#X connect 28 0 34 0;
#X connect 28 1 60 0;
#X connect 29 0 31 0;
#X connect 29 1 51 1;
#X connect 30 0 33 0;
#X connect 31 0 51 4;
#X connect 32 0 31 0;
#X connect 33 0 51 0;
#X connect 34 0 43 0;
#X connect 34 1 40 0;
#X connect 34 2 41 0;
#X connect 34 3 42 0;
#X connect 35 0 66 0;
#X connect 36 0 37 0;
#X connect 38 0 37 1;
#X connect 38 1 37 2;
#X connect 38 2 37 3;
#X connect 38 3 37 4;
#X connect 38 4 37 5;
#X connect 44 0 45 0;
#X connect 46 0 6 0;
#X connect 46 0 9 0;
#X connect 46 0 12 0;
#X connect 47 0 78 0;
#X connect 49 0 51 5;
#X connect 50 0 49 0;
#X connect 51 0 52 0;
#X connect 52 0 55 0;
#X connect 55 0 57 0;
#X connect 55 0 28 0;
#X connect 56 0 55 1;
#X connect 57 0 63 0;
#X connect 59 0 56 0;
#X connect 60 0 62 0;
#X connect 62 0 61 0;
#X connect 63 0 58 0;
#X connect 64 0 56 0;
#X connect 65 0 64 0;
#X connect 66 0 30 0;
#X connect 67 0 31 1;
#X connect 67 0 79 0;
#X connect 67 0 94 0;
#X connect 68 0 24 0;
#X connect 68 0 26 0;
#X connect 69 0 72 0;
#X connect 69 1 67 0;
#X connect 71 0 35 0;
#X connect 72 0 70 0;
#X connect 74 0 73 0;
#X connect 75 0 35 0;
#X connect 76 0 6 0;
#X connect 76 1 9 0;
#X connect 76 2 12 0;
#X connect 77 0 46 0;
#X connect 78 0 75 0;
#X connect 79 0 74 0;
#X connect 80 0 79 1;
#X connect 81 0 80 0;
#X connect 82 0 80 0;
#X connect 83 0 84 0;
#X connect 84 0 82 0;
#X connect 85 0 91 0;
#X connect 85 0 93 0;
#X connect 86 0 85 0;
#X connect 87 0 88 0;
#X connect 88 0 86 0;
#X connect 89 0 88 0;
#X connect 90 0 86 1;
#X connect 90 0 87 0;
#X connect 90 0 95 0;
#X connect 91 0 92 0;
