#N canvas 0 64 1920 993 10;
#X obj 78 186 adc~;
#X obj 62 84 block~ 64;
#N canvas 960 56 960 1001 vizualizer 0;
#X obj -32 460 cnv 15 584 297 empty empty empty 20 12 0 14 -233017
-66577 0;
#N canvas 0 0 450 300 (subpatch) 0;
#X array input-left 2048 float 4 black black;
#X coords 0 1 2047 -1 200 140 1;
#X restore -15 539 graph;
#X obj 30 115 tgl 15 0 empty empty empty 17 7 0 10 -262144 -1 -1 1
1;
#X obj -90 224 tabwrite~ input-left;
#X obj -89 22 inlet~;
#X obj 149 22 inlet~;
#N canvas 0 0 450 300 (subpatch) 0;
#X array input-right 2048 float 4 black black;
#X coords 0 1 2047 -1 200 140 1;
#X restore 263 539 graph;
#X obj 148 224 tabwrite~ input-right;
#X obj 195 547 vu 15 120 empty empty -1 -8 0 10 -66577 -1 1 0;
#X floatatom 473 414 5 0 0 0 - - -, f 5;
#X obj 473 391 - 100;
#X obj 473 547 vu 15 120 empty empty -1 -8 0 10 -66577 -1 1 0;
#X floatatom 195 414 5 0 0 0 - - -, f 5;
#X obj 195 391 - 100;
#X obj 30 66 loadbang;
#X obj 30 152 metro 50;
#X obj 195 367 env~ 256;
#X obj 473 367 env~ 256;
#X obj 556 43 block~ 512;
#X connect 2 0 15 0;
#X connect 4 0 3 0;
#X connect 4 0 16 0;
#X connect 5 0 7 0;
#X connect 5 0 17 0;
#X connect 9 0 11 0;
#X connect 10 0 9 0;
#X connect 12 0 8 0;
#X connect 13 0 12 0;
#X connect 14 0 2 0;
#X connect 15 0 3 0;
#X connect 15 0 7 0;
#X connect 16 0 13 0;
#X connect 17 0 10 0;
#X coords 0 -1 1 1 583 300 1 -32 460;
#X restore 388 297 pd vizualizer;
#X floatatom 76 591 5 0 0 0 - - -, f 5;
#X floatatom 76 675 5 0 0 0 - - -, f 5;
#X obj 76 642 max 0;
#X obj 76 769 vsl 20 100 0 1 0 0 empty empty empty 0 -9 0 10 -262144
-1 -1 2932 1;
#X obj 400 1281 vsl 20 100 0 255 0 0 empty empty empty 0 -9 0 10 -262144
-1 -1 2932 1;
#X obj 400 1394 int;
#X floatatom 400 1419 5 0 0 0 - - -, f 5;
#X obj 440 1281 vsl 20 100 0 255 0 0 empty empty empty 0 -9 0 10 -262144
-1 -1 2932 1;
#X obj 440 1394 int;
#X floatatom 440 1419 5 0 0 0 - - -, f 5;
#X obj 480 1281 vsl 20 100 0 255 0 0 empty empty empty 0 -9 0 10 -262144
-1 -1 0 1;
#X obj 480 1394 int;
#X floatatom 480 1419 5 0 0 0 - - -, f 5;
#X obj 76 882 * 255;
#X obj 545 1335 tgl 44 0 empty empty empty 17 7 0 10 -262144 -1 -1
1 1;
#X obj 76 707 min 1;
#X obj 76 907 s left_channel;
#X obj 545 1415 t b b;
#X msg 557 1583 /dev/ttyUSB1;
#X msg 556 1615 /dev/ttyUSB0;
#X obj -55 328 dac~;
#X obj 76 544 env~ 64;
#X floatatom 5 641 5 0 0 0 - - -, f 5;
#X msg -360 1717 leftbottom;
#X msg -367 -97 lefttop;
#X msg 1611 -126 righttop;
#X msg 557 1552 ./pipe.pipe;
#X obj 400 1667 rgb_shell;
#X obj 545 1389 metro 10;
#X obj 1108 1285 r path;
#X symbolatom 1108 1309 48 0 0 0 - - -, f 48;
#X obj 1191 1151 r startup_path, f 20;
#X obj 1158 1285 print path;
#X obj 1055 993 loadbang;
#X obj 1158 1214 symbol;
#X obj 1055 1083 s loadbang_d;
#X obj 1191 1176 symbol;
#X obj 1149 1058 print LOADBANG;
#X msg 1149 1031 1;
#X obj 1182 1260 s path;
#X obj 1073 1179 r loadbang_d;
#X obj 1055 1058 delay 300;
#X msg 1158 1113 /home/debian/Documents/DEV/LED.I/pd, f 44;
#X obj 895 666 tgl 29 0 empty empty empty 17 7 0 10 -262144 -1 -1 1
1;
#X msg 895 641 1;
#X msg 895 702 \; pd dsp \$1 \;;
#X obj 895 613 r loadbang_d;
#X obj 545 1301 r loadbang_d;
#X msg 626 1185 0;
#X obj 626 1146 loadbang;
#X obj 1154 1457 symbol;
#X obj 1187 1419 symbol;
#X obj 1069 1422 r loadbang_d;
#X obj 1187 1394 r startup_device, f 20;
#X obj 1154 1528 print device;
#X obj 1178 1503 s device;
#X symbolatom 1095 1552 48 0 0 0 - - -, f 48;
#X obj 1095 1528 r device;
#X msg 1154 1356 ./pipe.pipe, f 44;
#X obj 400 1508 int 0;
#X obj 440 1508 int 0;
#X obj 480 1509 int 0;
#X obj 400 1556 pack f f f;
#X obj 412 1584 r device;
#X msg 556 1649 close;
#X floatatom 5 710 5 0 0 0 - - -, f 5;
#X floatatom 5 759 5 0 0 0 - - -, f 5;
#X obj 5 783 max 0;
#X floatatom 5 808 5 0 0 0 - - -, f 5;
#X obj 5 832 * 255;
#X obj 5 863 vsl 20 100 0 255 0 0 empty empty empty 0 -9 0 10 -262144
-1 -1 3810 1;
#X obj 5 976 int;
#X floatatom 5 1001 5 0 0 0 - - -, f 5;
#X obj 5 601 max 0;
#X obj 5 734 / 10;
#X obj 5 667 sqrt;
#X obj 76 617 / 50;
#X obj 76 567 - 40;
#X floatatom -243 733 5 0 0 0 - - -, f 5;
#X floatatom -243 817 5 0 0 0 - - -, f 5;
#X obj -243 784 max 0;
#X obj -243 911 vsl 20 100 0 1 0 0 empty empty empty 0 -9 0 10 -262144
-1 -1 0 1;
#X obj -243 1024 * 255;
#X obj -243 849 min 1;
#X obj -243 1049 s left_channel;
#X obj -243 686 env~ 64;
#X floatatom -314 783 5 0 0 0 - - -, f 5;
#X floatatom -314 852 5 0 0 0 - - -, f 5;
#X floatatom -314 901 5 0 0 0 - - -, f 5;
#X obj -314 925 max 0;
#X floatatom -314 950 5 0 0 0 - - -, f 5;
#X obj -314 974 * 255;
#X obj -314 1005 vsl 20 100 0 255 0 0 empty empty empty 0 -9 0 10 -262144
-1 -1 0 1;
#X obj -314 1118 int;
#X floatatom -314 1143 5 0 0 0 - - -, f 5;
#X obj -314 743 max 0;
#X obj -314 876 / 10;
#X obj -314 809 sqrt;
#X obj -243 759 / 50;
#X obj -243 709 - 40;
#X floatatom -208 1303 5 0 0 0 - - -, f 5;
#X floatatom -208 1387 5 0 0 0 - - -, f 5;
#X obj -208 1354 max 0;
#X obj -178 1481 vsl 20 100 0 1 0 0 empty empty empty 0 -9 0 10 -262144
-1 -1 0 1;
#X obj -178 1594 * 255;
#X obj -208 1419 min 1;
#X obj -178 1619 s right_channel;
#X obj -208 1256 env~ 64;
#X obj -208 1279 - 70;
#X obj -208 1329 / 30;
#X floatatom 190 592 5 0 0 0 - - -, f 5;
#X floatatom 190 676 5 0 0 0 - - -, f 5;
#X obj 190 643 max 0;
#X obj 190 770 vsl 20 100 0 1 0 0 empty empty empty 0 -9 0 10 -262144
-1 -1 2876 1;
#X obj 190 883 * 255;
#X obj 190 708 min 1;
#X obj 190 545 env~ 64;
#X obj 190 618 / 50;
#X obj 190 568 - 40;
#X obj 190 908 s right_channel;
#X obj -201 131 t b b b;
#X obj -162 193 s stop;
#X obj -277 179 s start;
#X obj -239 153 s stop;
#X obj -182 170 0;
#X obj -182 217 s skipping;
#X obj -277 76 tcpreceive;
#X obj 470 772 vsl 16 40 0 1 0 0 empty empty empty 0 -9 0 10 -262144
-1 -1 0 1;
#X floatatom 470 827 5 0 0 0 - - -, f 5;
#X obj 455 858 *;
#X floatatom 455 883 5 0 0 0 - - -, f 5;
#X obj 416 772 vsl 16 40 0 1 0 0 empty empty empty 0 -9 0 10 -262144
-1 -1 0 1;
#X floatatom 416 827 5 0 0 0 - - -, f 5;
#X obj 401 858 *;
#X floatatom 401 883 5 0 0 0 - - -, f 5;
#X obj 401 611 r left_channel;
#X obj 455 636 r right_channel;
#X obj 401 1015 +;
#X obj 401 965 f;
#X obj 479 965 f;
#X obj 455 920 t b b f;
#X obj 401 920 t b f b;
#X obj 401 1040 min 255;
#X obj 625 772 vsl 16 40 0 1 0 0 empty empty empty 0 -9 0 10 -262144
-1 -1 0 1;
#X floatatom 625 827 5 0 0 0 - - -, f 5;
#X obj 610 858 *;
#X floatatom 610 883 5 0 0 0 - - -, f 5;
#X obj 571 772 vsl 16 40 0 1 0 0 empty empty empty 0 -9 0 10 -262144
-1 -1 3900 1;
#X floatatom 571 827 5 0 0 0 - - -, f 5;
#X obj 556 858 *;
#X floatatom 556 883 5 0 0 0 - - -, f 5;
#X obj 556 611 r left_channel;
#X obj 610 636 r right_channel;
#X obj 556 1015 +;
#X obj 556 965 f;
#X obj 634 965 f;
#X obj 610 920 t b b f;
#X obj 556 920 t b f b;
#X obj 556 1040 min 255;
#X obj 780 772 vsl 16 40 0 1 0 0 empty empty empty 0 -9 0 10 -262144
-1 -1 0 1;
#X floatatom 780 827 5 0 0 0 - - -, f 5;
#X obj 765 858 *;
#X floatatom 765 883 5 0 0 0 - - -, f 5;
#X obj 726 772 vsl 16 40 0 1 0 0 empty empty empty 0 -9 0 10 -262144
-1 -1 0 1;
#X floatatom 726 827 5 0 0 0 - - -, f 5;
#X obj 711 858 *;
#X floatatom 711 883 5 0 0 0 - - -, f 5;
#X obj 711 611 r left_channel;
#X obj 765 636 r right_channel;
#X obj 711 1015 +;
#X obj 711 965 f;
#X obj 789 965 f;
#X obj 765 920 t b b f;
#X obj 711 920 t b f b;
#X obj 711 1040 min 255;
#X obj 780 682 loadbang;
#X obj 401 1079 s led_red;
#X obj 556 1076 s led_green;
#X obj 711 1076 s led_blue;
#X obj 400 1150 r led_red;
#X obj 440 1175 r led_green;
#X obj 480 1200 r led_blue;
#X msg 470 744 0;
#X msg 571 744 0;
#X msg 726 744 0;
#X obj 1133 406 vsl 16 40 0 1 0 0 empty empty empty 0 -9 0 10 -262144
-1 -1 0 1;
#X floatatom 1133 461 5 0 0 0 - - -, f 5;
#X obj 1118 492 *;
#X floatatom 1118 517 5 0 0 0 - - -, f 5;
#X obj 1079 406 vsl 16 40 0 1 0 0 empty empty empty 0 -9 0 10 -262144
-1 -1 0 1;
#X floatatom 1079 461 5 0 0 0 - - -, f 5;
#X obj 1064 492 *;
#X floatatom 1064 517 5 0 0 0 - - -, f 5;
#X obj 1064 245 r left_channel;
#X obj 1118 270 r right_channel;
#X obj 1064 649 +;
#X obj 1064 599 f;
#X obj 1142 599 f;
#X obj 1118 554 t b b f;
#X obj 1064 554 t b f b;
#X obj 1064 674 min 255;
#X obj 1064 922 s led_red;
#X obj 1219 922 s led_green;
#X obj 1374 922 s led_blue;
#X msg 1079 378 0;
#X msg 1133 378 0;
#X obj 1064 789 - 127;
#X obj 1064 865 max 0;
#X obj 1131 706 vsl 16 40 127 0 0 0 empty empty empty 0 -9 0 10 -262144
-1 -1 3900 1;
#X floatatom 1131 761 5 0 0 0 - - -, f 5;
#X msg 1131 678 0;
#X obj 1288 406 vsl 16 40 0 1 0 0 empty empty empty 0 -9 0 10 -262144
-1 -1 0 1;
#X floatatom 1288 461 5 0 0 0 - - -, f 5;
#X obj 1273 492 *;
#X floatatom 1273 517 5 0 0 0 - - -, f 5;
#X obj 1234 406 vsl 16 40 0 1 0 0 empty empty empty 0 -9 0 10 -262144
-1 -1 0 1;
#X floatatom 1234 461 5 0 0 0 - - -, f 5;
#X obj 1219 492 *;
#X floatatom 1219 517 5 0 0 0 - - -, f 5;
#X obj 1219 245 r left_channel;
#X obj 1273 270 r right_channel;
#X obj 1219 649 +;
#X obj 1219 599 f;
#X obj 1297 599 f;
#X obj 1273 554 t b b f;
#X obj 1219 554 t b f b;
#X obj 1219 674 min 255;
#X msg 1234 378 0;
#X msg 1288 378 0;
#X obj 1219 789 - 127;
#X obj 1219 865 max 0;
#X obj 1286 706 vsl 16 40 127 0 0 0 empty empty empty 0 -9 0 10 -262144
-1 -1 3900 1;
#X floatatom 1286 761 5 0 0 0 - - -, f 5;
#X msg 1286 678 0;
#X obj 1443 406 vsl 16 40 0 1 0 0 empty empty empty 0 -9 0 10 -262144
-1 -1 0 1;
#X floatatom 1443 461 5 0 0 0 - - -, f 5;
#X obj 1428 492 *;
#X floatatom 1428 517 5 0 0 0 - - -, f 5;
#X obj 1389 406 vsl 16 40 0 1 0 0 empty empty empty 0 -9 0 10 -262144
-1 -1 0 1;
#X floatatom 1389 461 5 0 0 0 - - -, f 5;
#X obj 1374 492 *;
#X floatatom 1374 517 5 0 0 0 - - -, f 5;
#X obj 1374 245 r left_channel;
#X obj 1428 270 r right_channel;
#X obj 1374 649 +;
#X obj 1374 599 f;
#X obj 1452 599 f;
#X obj 1428 554 t b b f;
#X obj 1374 554 t b f b;
#X obj 1374 674 min 255;
#X msg 1389 378 0;
#X msg 1443 378 0;
#X obj 1374 789 - 127;
#X obj 1374 865 max 0;
#X obj 1441 706 vsl 16 40 127 0 0 0 empty empty empty 0 -9 0 10 -262144
-1 -1 3900 1;
#X floatatom 1441 761 5 0 0 0 - - -, f 5;
#X msg 1441 678 0;
#X obj 1468 317 loadbang;
#X obj 1441 644 loadbang;
#X obj 1286 644 loadbang;
#X obj 1131 644 loadbang;
#X obj 158 1308 vsl 16 40 0 1 0 0 empty empty empty 0 -9 0 10 -262144
-1 -1 3900 1;
#X floatatom 158 1363 5 0 0 0 - - -, f 5;
#X obj 143 1394 *;
#X floatatom 143 1419 5 0 0 0 - - -, f 5;
#X obj 104 1308 vsl 16 40 0 1 0 0 empty empty empty 0 -9 0 10 -262144
-1 -1 3900 1;
#X floatatom 104 1363 5 0 0 0 - - -, f 5;
#X obj 89 1394 *;
#X floatatom 89 1419 5 0 0 0 - - -, f 5;
#X obj 89 1551 +;
#X obj 89 1501 f;
#X obj 167 1501 f;
#X obj 143 1456 t b b f;
#X obj 89 1456 t b f b;
#X obj 89 1576 min 255;
#X msg 104 1280 0;
#X msg 158 1280 0;
#X obj 77 1057 vsl 20 100 0 1 0 0 empty empty empty 0 -9 0 10 -262144
-1 -1 700 0;
#X obj 77 1170 * 255;
#X obj 141 1058 vsl 20 100 0 1 0 0 empty empty empty 0 -9 0 10 -262144
-1 -1 1500 0;
#X obj 141 1171 * 255;
#X floatatom 89 1601 5 0 0 0 - - -, f 5;
#X msg 416 744 0.5;
#X msg 780 744 0;
#X msg 625 744 0;
#X connect 0 0 2 0;
#X connect 0 0 24 0;
#X connect 0 1 2 1;
#X connect 0 1 119 0;
#X connect 3 0 79 0;
#X connect 4 0 18 0;
#X connect 5 0 4 0;
#X connect 6 0 16 0;
#X connect 7 0 8 0;
#X connect 8 0 9 0;
#X connect 9 0 62 1;
#X connect 10 0 11 0;
#X connect 11 0 12 0;
#X connect 12 0 63 1;
#X connect 13 0 14 0;
#X connect 14 0 15 0;
#X connect 15 0 64 1;
#X connect 16 0 19 0;
#X connect 17 0 31 0;
#X connect 18 0 6 0;
#X connect 20 0 62 0;
#X connect 20 1 63 0;
#X connect 20 1 64 0;
#X connect 21 0 30 1;
#X connect 22 0 30 1;
#X connect 24 0 80 0;
#X connect 25 0 78 0;
#X connect 29 0 30 1;
#X connect 31 0 20 0;
#X connect 32 0 33 0;
#X connect 34 0 39 0;
#X connect 36 0 41 0;
#X connect 36 0 44 0;
#X connect 37 0 35 0;
#X connect 37 0 42 0;
#X connect 39 0 37 1;
#X connect 41 0 40 0;
#X connect 43 0 37 0;
#X connect 44 0 38 0;
#X connect 45 0 37 0;
#X connect 46 0 48 0;
#X connect 47 0 46 0;
#X connect 49 0 47 0;
#X connect 50 0 17 0;
#X connect 51 0 7 0;
#X connect 51 0 10 0;
#X connect 51 0 13 0;
#X connect 51 0 31 0;
#X connect 52 0 51 0;
#X connect 53 0 57 0;
#X connect 53 0 58 0;
#X connect 54 0 53 1;
#X connect 54 0 53 0;
#X connect 55 0 53 0;
#X connect 56 0 54 0;
#X connect 60 0 59 0;
#X connect 61 0 53 0;
#X connect 62 0 65 0;
#X connect 63 0 65 1;
#X connect 64 0 65 2;
#X connect 65 0 30 0;
#X connect 66 0 30 1;
#X connect 67 0 30 1;
#X connect 68 0 77 0;
#X connect 69 0 70 0;
#X connect 70 0 71 0;
#X connect 71 0 72 0;
#X connect 72 0 73 0;
#X connect 73 0 74 0;
#X connect 74 0 75 0;
#X connect 76 0 25 0;
#X connect 77 0 69 0;
#X connect 78 0 68 0;
#X connect 79 0 5 0;
#X connect 80 0 3 0;
#X connect 80 0 76 0;
#X connect 81 0 101 0;
#X connect 82 0 86 0;
#X connect 83 0 82 0;
#X connect 84 0 85 0;
#X connect 85 0 87 0;
#X connect 86 0 84 0;
#X connect 88 0 102 0;
#X connect 89 0 100 0;
#X connect 90 0 99 0;
#X connect 91 0 92 0;
#X connect 92 0 93 0;
#X connect 93 0 94 0;
#X connect 94 0 95 0;
#X connect 95 0 96 0;
#X connect 96 0 97 0;
#X connect 98 0 89 0;
#X connect 99 0 91 0;
#X connect 100 0 90 0;
#X connect 101 0 83 0;
#X connect 102 0 81 0;
#X connect 102 0 98 0;
#X connect 103 0 112 0;
#X connect 104 0 108 0;
#X connect 105 0 104 0;
#X connect 106 0 107 0;
#X connect 107 0 109 0;
#X connect 108 0 106 0;
#X connect 110 0 111 0;
#X connect 111 0 103 0;
#X connect 112 0 105 0;
#X connect 113 0 120 0;
#X connect 114 0 118 0;
#X connect 115 0 114 0;
#X connect 116 0 117 0;
#X connect 117 0 122 0;
#X connect 118 0 116 0;
#X connect 119 0 121 0;
#X connect 120 0 115 0;
#X connect 121 0 113 0;
#X connect 123 1 127 0;
#X connect 123 2 124 0;
#X connect 127 0 128 0;
#X connect 129 0 125 0;
#X connect 129 2 126 0;
#X connect 129 3 123 0;
#X connect 130 0 131 0;
#X connect 131 0 132 1;
#X connect 132 0 133 0;
#X connect 133 0 143 0;
#X connect 134 0 135 0;
#X connect 135 0 136 1;
#X connect 136 0 137 0;
#X connect 137 0 144 0;
#X connect 138 0 136 0;
#X connect 139 0 132 0;
#X connect 140 0 145 0;
#X connect 141 0 140 0;
#X connect 142 0 140 1;
#X connect 143 0 141 0;
#X connect 143 1 142 0;
#X connect 143 2 142 1;
#X connect 144 0 141 0;
#X connect 144 1 141 1;
#X connect 144 2 142 0;
#X connect 145 0 179 0;
#X connect 146 0 147 0;
#X connect 147 0 148 1;
#X connect 148 0 149 0;
#X connect 149 0 159 0;
#X connect 150 0 151 0;
#X connect 151 0 152 1;
#X connect 152 0 153 0;
#X connect 153 0 160 0;
#X connect 154 0 152 0;
#X connect 155 0 148 0;
#X connect 156 0 161 0;
#X connect 157 0 156 0;
#X connect 158 0 156 1;
#X connect 159 0 157 0;
#X connect 159 1 158 0;
#X connect 159 2 158 1;
#X connect 160 0 157 0;
#X connect 160 1 157 1;
#X connect 160 2 158 0;
#X connect 161 0 180 0;
#X connect 162 0 163 0;
#X connect 163 0 164 1;
#X connect 164 0 165 0;
#X connect 165 0 175 0;
#X connect 166 0 167 0;
#X connect 167 0 168 1;
#X connect 168 0 169 0;
#X connect 169 0 176 0;
#X connect 170 0 168 0;
#X connect 171 0 164 0;
#X connect 172 0 177 0;
#X connect 173 0 172 0;
#X connect 174 0 172 1;
#X connect 175 0 173 0;
#X connect 175 1 174 0;
#X connect 175 2 174 1;
#X connect 176 0 173 0;
#X connect 176 1 173 1;
#X connect 176 2 174 0;
#X connect 177 0 181 0;
#X connect 178 0 286 0;
#X connect 178 0 187 0;
#X connect 178 0 186 0;
#X connect 178 0 287 0;
#X connect 178 0 285 0;
#X connect 178 0 185 0;
#X connect 182 0 7 0;
#X connect 183 0 10 0;
#X connect 184 0 13 0;
#X connect 185 0 130 0;
#X connect 186 0 150 0;
#X connect 187 0 166 0;
#X connect 188 0 189 0;
#X connect 189 0 190 1;
#X connect 190 0 191 0;
#X connect 191 0 201 0;
#X connect 192 0 193 0;
#X connect 193 0 194 1;
#X connect 194 0 195 0;
#X connect 195 0 202 0;
#X connect 198 0 203 0;
#X connect 199 0 198 0;
#X connect 200 0 198 1;
#X connect 201 0 199 0;
#X connect 201 1 200 0;
#X connect 201 2 200 1;
#X connect 202 0 199 0;
#X connect 202 1 199 1;
#X connect 202 2 200 0;
#X connect 203 0 209 0;
#X connect 207 0 192 0;
#X connect 208 0 188 0;
#X connect 209 0 210 0;
#X connect 211 0 212 0;
#X connect 212 0 209 1;
#X connect 213 0 211 0;
#X connect 214 0 215 0;
#X connect 215 0 216 1;
#X connect 216 0 217 0;
#X connect 217 0 227 0;
#X connect 218 0 219 0;
#X connect 219 0 220 1;
#X connect 220 0 221 0;
#X connect 221 0 228 0;
#X connect 224 0 229 0;
#X connect 225 0 224 0;
#X connect 226 0 224 1;
#X connect 227 0 225 0;
#X connect 227 1 226 0;
#X connect 227 2 226 1;
#X connect 228 0 225 0;
#X connect 228 1 225 1;
#X connect 228 2 226 0;
#X connect 229 0 232 0;
#X connect 230 0 218 0;
#X connect 231 0 214 0;
#X connect 232 0 233 0;
#X connect 234 0 235 0;
#X connect 235 0 232 1;
#X connect 236 0 234 0;
#X connect 237 0 238 0;
#X connect 238 0 239 1;
#X connect 239 0 240 0;
#X connect 240 0 250 0;
#X connect 241 0 242 0;
#X connect 242 0 243 1;
#X connect 243 0 244 0;
#X connect 244 0 251 0;
#X connect 247 0 252 0;
#X connect 248 0 247 0;
#X connect 249 0 247 1;
#X connect 250 0 248 0;
#X connect 250 1 249 0;
#X connect 250 2 249 1;
#X connect 251 0 248 0;
#X connect 251 1 248 1;
#X connect 251 2 249 0;
#X connect 252 0 255 0;
#X connect 253 0 241 0;
#X connect 254 0 237 0;
#X connect 255 0 256 0;
#X connect 257 0 258 0;
#X connect 258 0 255 1;
#X connect 259 0 257 0;
#X connect 260 0 207 0;
#X connect 260 0 254 0;
#X connect 260 0 253 0;
#X connect 260 0 231 0;
#X connect 260 0 230 0;
#X connect 260 0 208 0;
#X connect 261 0 259 0;
#X connect 262 0 236 0;
#X connect 263 0 213 0;
#X connect 264 0 265 0;
#X connect 265 0 266 1;
#X connect 266 0 267 0;
#X connect 267 0 275 0;
#X connect 268 0 269 0;
#X connect 269 0 270 1;
#X connect 270 0 271 0;
#X connect 271 0 276 0;
#X connect 272 0 277 0;
#X connect 273 0 272 0;
#X connect 274 0 272 1;
#X connect 275 0 273 0;
#X connect 275 1 274 0;
#X connect 275 2 274 1;
#X connect 276 0 273 0;
#X connect 276 1 273 1;
#X connect 276 2 274 0;
#X connect 277 0 284 0;
#X connect 278 0 268 0;
#X connect 279 0 264 0;
#X connect 280 0 281 0;
#X connect 281 0 270 0;
#X connect 282 0 283 0;
#X connect 283 0 266 0;
#X connect 285 0 134 0;
#X connect 286 0 162 0;
#X connect 287 0 146 0;
